<mxfile>
    <diagram id="3onvnrY_320YCmPHl3B7" name="第 1 页">
        <mxGraphModel dx="1137" dy="1129" grid="1" gridSize="10" guides="1" tooltips="1" connect="1" arrows="1" fold="1" page="1" pageScale="1" pageWidth="827" pageHeight="1169" math="0" shadow="0">
            <root>
                <mxCell id="0"/>
                <mxCell id="1" parent="0"/>
                <mxCell id="4" value="" style="group" vertex="1" connectable="0" parent="1">
                    <mxGeometry x="30" y="10" width="600" height="20" as="geometry"/>
                </mxCell>
                <mxCell id="2" value="来源：" style="text;html=1;align=center;verticalAlign=middle;resizable=0;points=[];autosize=1;fontFamily=Lucida Console;" vertex="1" parent="4">
                    <mxGeometry width="50" height="20" as="geometry"/>
                </mxCell>
                <mxCell id="3" value="https://www.bilibili.com/video/BV1m5411p7wR?from=search&amp;amp;seid=14248942010279108564" style="text;html=1;align=center;verticalAlign=middle;resizable=0;points=[];autosize=1;fontFamily=Lucida Console;" vertex="1" parent="4">
                    <mxGeometry x="45" width="600" height="20" as="geometry"/>
                </mxCell>
            </root>
        </mxGraphModel>
    </diagram>
</mxfile>